<svg width="32" height="32" viewBox="0 0 32 32" fill="none" xmlns="http://www.w3.org/2000/svg">
  <defs>
    <linearGradient id="fpLogoGrad1" x1="0%" y1="0%" x2="100%" y2="100%">
      <stop offset="0%" style="stop-color:#2563EB"/>
      <stop offset="100%" style="stop-color:#0EA5E9"/>
    </linearGradient>
    <linearGradient id="fpLogoGrad2" x1="0%" y1="0%" x2="100%" y2="100%">
      <stop offset="0%" style="stop-color:#3B82F6"/>
      <stop offset="100%" style="stop-color:#06B6D4"/>
    </linearGradient>
  </defs>
  
  <!-- Background with rounded corners -->
  <rect width="32" height="32" rx="8" fill="url(#fpLogoGrad1)"/>
  
  <!-- Financial chart bars forming the "F" -->
  <!-- Vertical bars creating the F structure -->
  <rect x="7" y="8" width="2.5" height="15" rx="1" fill="white" opacity="0.9"/>
  <!-- Horizontal bars of F -->
  <rect x="7" y="8" width="6" height="2.5" rx="1" fill="white" opacity="0.9"/>
  <rect x="7" y="14.5" width="5" height="2.5" rx="1" fill="white" opacity="0.9"/>
  
  <!-- Financial trend line with data points forming the "P" -->
  <!-- Vertical line of P -->
  <rect x="16" y="8" width="2.5" height="15" rx="1" fill="white" opacity="0.9"/>
  <!-- Curved top of P (representing upward financial trend) -->
  <path d="M 16 8 L 21 8 Q 24 8 24 12 Q 24 16 21 16 L 16 16" stroke="white" stroke-width="2.5" stroke-linecap="round" stroke-linejoin="round" fill="none"/>
  
  <!-- AI Neural Network connections - connecting nodes around the letters -->
  <!-- Nodes (data points) -->
  <circle cx="10" cy="5" r="1.5" fill="url(#fpLogoGrad2)" opacity="0.8"/>
  <circle cx="24" cy="5" r="1.5" fill="url(#fpLogoGrad2)" opacity="0.8"/>
  <circle cx="28" cy="12" r="1.5" fill="url(#fpLogoGrad2)" opacity="0.8"/>
  <circle cx="28" cy="22" r="1.5" fill="url(#fpLogoGrad2)" opacity="0.8"/>
  
  <!-- AI connection lines (neural network pattern) -->
  <path d="M 10 5 Q 16 3 24 5" stroke="url(#fpLogoGrad2)" stroke-width="1" fill="none" opacity="0.6"/>
  <path d="M 24 5 L 28 12" stroke="url(#fpLogoGrad2)" stroke-width="1" fill="none" opacity="0.5"/>
  <path d="M 12 23 Q 18 24 28 22" stroke="url(#fpLogoGrad2)" stroke-width="1" fill="none" opacity="0.5"/>
  
  <!-- Small ascending chart bars at bottom (financial growth indicator) -->
  <rect x="4" y="26" width="1.5" height="4" rx="0.75" fill="url(#fpLogoGrad2)" opacity="0.7"/>
  <rect x="6.5" y="24" width="1.5" height="6" rx="0.75" fill="url(#fpLogoGrad2)" opacity="0.7"/>
  <rect x="9" y="22" width="1.5" height="8" rx="0.75" fill="url(#fpLogoGrad2)" opacity="0.7"/>
</svg>
